 <svg xmlns="http://www.w3.org/2000/svg" viewBox="0 0 550 470">
      <g data-paper-data='{"isGlobalGroup":true,"bounds":{"x":146,"y":106,"width":258,"height":258}}' fill="#509e2f" fill-rule="none">
        <g
          data-paper-data='{"initialText":"BB","fillRule":"nonzero","selectedEffects":{"container":"circle_simple_outline3","transformation":"","pattern":""},"blockLetter":"O","blockLetterId":0,"relativeBoundsIconToContainer":{"top":-6.213659801432982e-7,"left":0.036413130338606894},"widthRatioIconToContainer":0.66024797213577,"heightRatioIconToContainer":0.7704165069973158,"bounds":{"x":199.28473865206865,"y":159.28474522734479,"width":151.4303593102187,"height":151.4306091707112},"isIcon":"true","iconType":"initial","iconStyle":"standalone","rawInitialId":543,"monogramSpecial":"melted-letters","suitableAsStandaloneIcon":true}'
          fill-rule="nonzero"
        >
          <path
            d="M310.322 259.733c0 2.333-.117 4.666-.467 6.766-.35.35-8.516.934-10.15.934.467-2.334.7-4.784.7-7.583 0-13.65-6.3-21.35-17.733-23.683-2.333-.467-4.9-.35-7.583-.35h-14.466v49.232h16.8c7.583 0 13.3-2.333 17.266-6.766h11.433c-5.133 9.45-14.817 15.05-27.766 15.05h-27.533V176.667h28.466c10.383 0 18.316 3.85 22.866 12.95h-11.083c-3.033-3.734-9.333-4.667-13.766-4.667h-16.683v42.582h14.583c14.466 0 21.466-7.35 21.466-20.65 0-2.332-.233-4.432-.7-6.416 4.9 0 8.983.35 10.15.584.233 1.633.35 3.266.35 5.016 0 10.5-3.5 16.917-7.933 20.766-2.1 1.634-3.85 2.684-6.884 3.85 4.317 1.75 6.067 2.217 9.684 5.484 6.3 6.3 8.983 13.3 8.983 23.566zm-60.55 8.75v8.75h-19.249v-86.566h19.25v8.75h-9.45v28.116h9.45v8.167h-9.45v32.783zm80.733-16.917c0 9.567-1.867 15.283-6.183 19.483-4.084 3.617-8.984 5.484-16.45 6.067-1.983.117-2.683.117-46.2.117v-8.75h36.75c5.367 0 10.383-.467 12.483-1.05 6.883-1.867 8.867-6.184 8.867-15.4 0-11.55-5.834-14.933-16.8-15.75-2.683-2.8-5.717-4.55-8.283-5.6 1.516-.816 2.916-1.75 4.316-2.8 8.05-.116 10.617-.7 13.067-2.216 3.15-1.867 4.55-5.6 4.55-11.783 0-8.167-2.45-12.25-9.567-13.767-1.4-.35-5.483-.7-8.983-.7h-36.4v-8.75l42.467.117c9.216.233 23.216 5.833 23.216 22.983 0 8.633-3.967 15.283-11.55 17.616 9.567 2.45 14.7 7.933 14.7 20.183zM221.46 181.461c6.985-6.985 15.007-12.393 24.066-16.225 9.38-3.968 19.205-5.951 29.473-5.951s20.092 1.983 29.473 5.951c9.058 3.832 17.08 9.24 24.066 16.225 6.985 6.985 12.393 15.007 16.225 24.066 3.967 9.38 5.951 19.205 5.951 29.473s-1.984 20.092-5.951 29.472c-3.832 9.06-9.24 17.082-16.225 24.067-6.986 6.985-15.008 12.393-24.066 16.225-9.38 3.968-19.205 5.951-29.473 5.951s-20.092-1.983-29.473-5.951c-9.058-3.832-17.08-9.24-24.066-16.225-6.985-6.985-12.393-15.007-16.225-24.067-3.968-9.38-5.951-19.204-5.951-29.472s1.983-20.092 5.951-29.473c3.832-9.059 9.24-17.08 16.225-24.066zm4.119 102.96c6.45 6.45 13.855 11.442 22.216 14.979 8.655 3.66 17.723 5.49 27.204 5.49 9.48 0 18.549-1.83 27.204-5.49 8.361-3.537 15.767-8.53 22.216-14.98 6.45-6.45 11.443-13.855 14.98-22.216 3.66-8.655 5.49-17.723 5.49-27.204 0-9.48-1.83-18.549-5.49-27.204-3.537-8.361-8.53-15.767-14.98-22.216-6.45-6.45-13.855-11.443-22.216-14.98-8.655-3.66-17.723-5.491-27.204-5.491-9.48 0-18.549 1.83-27.204 5.491-8.361 3.537-15.767 8.53-22.216 14.98-6.45 6.45-11.443 13.855-14.98 22.216-3.66 8.655-5.491 17.723-5.491 27.204 0 9.48 1.83 18.549 5.491 27.204 3.537 8.361 8.53 15.767 14.98 22.216z"
            data-paper-data='{"isPathIcon":true}'
          />
        </g>
        <g data-paper-data='{"isContainerElementsWrapper":true}' fill-rule="evenodd">
          <path
            d="M146 235c0-71.245 57.755-129 129-129s129 57.755 129 129-57.755 129-129 129-129-57.755-129-129zm125.965-112.281.672 18.753-2.006.072-.672-18.753-7.059.253-.065-1.813 16.123-.578.065 1.812zm-35.31 4.455 5.851 19.73 11.676-3.463-.52-1.753-9.751 2.892-2.321-7.827 8.382-2.486-.52-1.753L241.07 135l-1.974-6.658 9.75-2.891-.515-1.74zm82.158 21.076c.609-.57 1.121-1.344 1.536-2.32.321-.757.496-1.459.523-2.105a4.438 4.438 0 0 0-.273-1.788 4.464 4.464 0 0 0-.939-1.481 6.784 6.784 0 0 0-1.46-1.163c.53.043 1.028.02 1.491-.068a3.852 3.852 0 0 0 1.295-.5c.4-.245.764-.575 1.092-.99.327-.416.62-.93.88-1.54.303-.712.464-1.376.484-1.992a3.246 3.246 0 0 0-.455-1.761c-.323-.558-.835-1.09-1.535-1.597-.7-.508-1.62-1.004-2.76-1.489l-5.405-2.298-8.052 18.939 5.679 2.414c1.132.481 2.183.801 3.154.961.972.16 1.853.139 2.645-.063a4.747 4.747 0 0 0 2.1-1.16zm2.417-13.894c-.01.454-.137.968-.381 1.543-.512 1.204-1.26 1.917-2.243 2.14-.984.223-2.283-.009-3.897-.695l-3.025-1.286 2.752-6.472 3.134 1.332c.857.364 1.556.72 2.098 1.07.541.348.939.716 1.194 1.105.255.388.377.81.368 1.263zm-99.92 4.979a7.539 7.539 0 0 0-1.505-.689c-.496-.16-1.001-.237-1.515-.233a5.136 5.136 0 0 0-1.586.28 7.74 7.74 0 0 0-1.691.831c-.945.603-1.656 1.276-2.133 2.022a4.85 4.85 0 0 0-.768 2.473c-.035.904.144 1.89.536 2.956.392 1.067.985 2.223 1.78 3.468.746 1.17 1.51 2.158 2.294 2.963.784.805 1.603 1.389 2.456 1.75.854.36 1.751.482 2.693.364.941-.119 1.943-.516 3.004-1.193.351-.224.678-.459.98-.704.302-.246.586-.51.853-.791.267-.282.527-.589.78-.92.253-.332.508-.692.766-1.08l-3.11-4.877-4.626 2.95-.983-1.542 6.318-4.03 4.701 7.372c-.324.56-.64 1.073-.949 1.54a11.368 11.368 0 0 1-2.219 2.508c-.45.382-.976.764-1.578 1.148-1.37.874-2.66 1.4-3.87 1.577-1.21.178-2.36.062-3.45-.348-1.09-.41-2.12-1.09-3.09-2.04-.971-.951-1.902-2.125-2.792-3.52-.89-1.396-1.56-2.733-2.01-4.01-.45-1.276-.634-2.487-.553-3.632.081-1.145.448-2.22 1.101-3.224s1.64-1.927 2.96-2.77c.82-.522 1.594-.901 2.325-1.138.73-.237 1.425-.356 2.082-.358a6.183 6.183 0 0 1 1.892.284c.604.19 1.19.446 1.758.766zm97.498 3.718c.056.579-.082 1.26-.416 2.045-.349.82-.766 1.43-1.253 1.826a3.056 3.056 0 0 1-1.673.686c-.63.061-1.332-.014-2.11-.226a20.203 20.203 0 0 1-2.56-.91l-2.997-1.275 3.182-7.485 3.53 1.5c.821.35 1.546.704 2.174 1.062.629.36 1.126.767 1.492 1.224.365.457.577.975.631 1.553zm14.41 18.313-6.183-4.495 1.041-1.431 2.273 1.653 10.031-13.794-2.272-1.653 1.03-1.419 6.183 4.495-1.032 1.42-2.286-1.662-10.03 13.793 2.284 1.662zm12.992 12.954 14.145-12.331 4.64 5.324 1.369-1.192-10.603-12.161-1.366 1.192 4.641 5.324-14.145 12.331zM195.272 235c0-44.033 35.695-79.728 79.728-79.728 44.032 0 79.728 35.695 79.728 79.728 0 44.032-35.696 79.728-79.728 79.728-44.033 0-79.728-35.696-79.728-79.728zm10.332-70.77c-.712-1.19-1.818-2.454-3.318-3.796-1.44-1.288-2.778-2.228-4.011-2.82-1.234-.59-2.41-.862-3.531-.813-1.12.048-2.205.398-3.253 1.05-1.049.652-2.111 1.58-3.189 2.784l-3.211 3.591 15.34 13.719 3.23-3.614c1.018-1.137 1.8-2.25 2.347-3.337.547-1.087.794-2.189.742-3.306-.051-1.117-.433-2.27-1.146-3.458zm-7.992-4.535c.976.52 2.045 1.3 3.205 2.338 1.19 1.064 2.098 2.059 2.725 2.986.628.926.99 1.833 1.09 2.719.098.886-.065 1.778-.489 2.676-.423.897-1.085 1.849-1.983 2.853l-1.745 1.951-12.624-11.29 1.745-1.95c.918-1.028 1.804-1.798 2.656-2.313.852-.514 1.725-.768 2.617-.762.891.007 1.826.27 2.803.792zm-11.698 24.66c1.52.725 2.747 1.452 3.679 2.182.931.73 1.592 1.51 1.982 2.338.39.828.525 1.73.406 2.706-.12.975-.467 2.067-1.043 3.275-.602 1.261-1.253 2.252-1.953 2.973-.7.72-1.5 1.185-2.395 1.394-.896.21-1.917.179-3.061-.092-1.145-.272-2.464-.764-3.959-1.476l-10.817-5.16.864-1.812 10.55 5.032c1.288.614 2.402 1.052 3.342 1.314s1.767.332 2.478.21a3.425 3.425 0 0 0 1.855-.952c.525-.513 1.011-1.24 1.46-2.179.452-.948.712-1.788.78-2.519a3.302 3.302 0 0 0-.436-2.02c-.36-.616-.936-1.204-1.73-1.763-.792-.56-1.82-1.14-3.081-1.742l-10.603-5.057.865-1.812zm180.175 15.712a10.41 10.41 0 0 1-1.944-.301 6.476 6.476 0 0 1-1.811-.779c-.58-.359-1.13-.839-1.651-1.44-.521-.603-1.005-1.368-1.453-2.297-1.299-2.697-1.447-5.073-.446-7.13 1.001-2.055 3.105-3.855 6.312-5.399 1.553-.748 3.005-1.26 4.352-1.535 1.348-.275 2.582-.292 3.705-.051a6.716 6.716 0 0 1 3.027 1.521c.895.774 1.667 1.835 2.317 3.183.417.867.704 1.68.862 2.44.157.761.203 1.473.137 2.137a6.251 6.251 0 0 1-.48 1.882 8.681 8.681 0 0 1-.98 1.701l-1.739-1.076c.317-.439.583-.886.798-1.342a5.005 5.005 0 0 0 .388-3.083c-.1-.573-.311-1.195-.634-1.865-.507-1.054-1.116-1.866-1.826-2.438a4.971 4.971 0 0 0-2.425-1.06c-.906-.135-1.908-.071-3.002.192-1.094.263-2.285.704-3.571 1.323-1.286.62-2.373 1.275-3.26 1.967-.89.692-1.561 1.439-2.016 2.241a5.049 5.049 0 0 0-.67 2.584c.008.92.27 1.916.786 2.988.362.75.764 1.357 1.207 1.82.443.463.902.822 1.377 1.078.476.255.955.434 1.44.537.483.102.952.17 1.409.203zm11.608 22.164-9.596 1.664.343 1.978 20.276-3.516-.343-1.978-8.878 1.54-1.712-9.875 8.878-1.54-.344-1.977-20.275 3.516.342 1.977 9.596-1.664zm-199.76-11.05c1.045.18 1.915.5 2.61.963a4.746 4.746 0 0 1 1.61 1.778c.377.725.6 1.578.667 2.56.067.982-.004 2.08-.213 3.29l-1.049 6.081-20.28-3.497.999-5.788c.21-1.22.482-2.23.816-3.028.334-.797.735-1.417 1.204-1.86a3.245 3.245 0 0 1 1.61-.846c.604-.122 1.287-.117 2.049.014.654.113 1.221.281 1.7.505.48.223.885.502 1.215.835.33.334.59.716.783 1.146.192.43.328.91.409 1.436.197-.62.463-1.182.796-1.688a4.471 4.471 0 0 1 1.227-1.252 4.44 4.44 0 0 1 1.678-.676c.635-.122 1.358-.113 2.169.027zm-9.88 1.812c-.615-.107-1.144-.112-1.588-.018a2.17 2.17 0 0 0-1.145.648c-.32.337-.587.809-.803 1.415-.215.607-.402 1.37-.56 2.288l-.579 3.355 6.931 1.195.558-3.238c.299-1.729.227-3.047-.216-3.953-.442-.906-1.308-1.47-2.597-1.692zm9.518.283c-.84-.145-1.535-.124-2.085.063-.55.186-1.006.51-1.367.971-.362.46-.645 1.038-.85 1.732-.205.694-.383 1.48-.535 2.36l-.652 3.78 8.015 1.382.554-3.209a20.21 20.21 0 0 0 .3-2.702c.028-.804-.06-1.506-.264-2.105a3.059 3.059 0 0 0-1.051-1.471c-.497-.382-1.186-.65-2.065-.801zm211.227 36.419-9.596-1.664-1.712 9.874 9.596 1.665-.343 1.977-20.277-3.516.344-1.978 8.877 1.54 1.713-9.875-8.879-1.54.344-1.977 20.276 3.516zM169.19 260.328c-1.046.18-1.973.17-2.782-.033a4.75 4.75 0 0 1-2.113-1.137c-.599-.556-1.094-1.285-1.486-2.189-.392-.902-.693-1.96-.902-3.17l-1.048-6.082 20.28-3.497.998 5.788c.21 1.22.292 2.263.245 3.126-.048.863-.218 1.582-.511 2.156a3.246 3.246 0 0 1-1.234 1.337c-.528.317-1.174.541-1.936.672-.654.114-1.245.145-1.771.095a4.14 4.14 0 0 1-1.424-.38 3.851 3.851 0 0 1-1.122-.819 5.545 5.545 0 0 1-.866-1.215c.022.65-.04 1.27-.185 1.857a4.47 4.47 0 0 1-.736 1.591 4.443 4.443 0 0 1-1.355 1.2c-.558.326-1.242.56-2.052.7zm8.7-5.016c.616-.106 1.117-.278 1.504-.516.386-.237.674-.569.862-.993.188-.425.282-.96.282-1.603 0-.644-.08-1.425-.238-2.343l-.579-3.356-6.93 1.196.558 3.238c.298 1.729.807 2.946 1.527 3.652.72.706 1.725.947 3.015.725zm-9.062 2.92c.84-.144 1.488-.397 1.944-.757.456-.36.777-.818.963-1.373.186-.555.26-1.194.22-1.917a20.906 20.906 0 0 0-.286-2.402l-.652-3.78-8.015 1.382.554 3.209c.171.996.379 1.878.622 2.646s.56 1.4.953 1.895c.392.496.887.841 1.483 1.035.597.193 1.335.214 2.214.063zm9.626 30.544c1.154-.265 2.49-.76 4.012-1.486l10.817-5.158-.864-1.812-10.603 5.057c-1.261.601-2.359 1.034-3.293 1.299-.934.264-1.753.341-2.458.233a3.298 3.298 0 0 1-1.845-.933c-.525-.513-1.013-1.243-1.466-2.191-.448-.94-.706-1.775-.775-2.506-.068-.73.074-1.41.428-2.04.353-.63.927-1.228 1.722-1.794.796-.565 1.837-1.156 3.126-1.77l10.549-5.032-.864-1.812-10.818 5.16c-1.494.712-2.707 1.428-3.638 2.146-.931.72-1.597 1.493-1.998 2.32-.402.83-.543 1.742-.424 2.74.12.998.48 2.127 1.081 3.389.576 1.208 1.206 2.165 1.889 2.872.683.706 1.469 1.168 2.358 1.387.89.219 1.91.195 3.064-.07zm200.95-11.193c-.266-.59-.591-1.16-.976-1.708l-1.692 1.082c.258.378.498.788.719 1.23.222.443.38.93.477 1.46a5.59 5.59 0 0 1 .016 1.749c-.086.635-.31 1.328-.67 2.078-.517 1.072-1.132 1.898-1.846 2.477a5.052 5.052 0 0 1-2.438 1.087c-.911.145-1.914.086-3.01-.178-1.093-.263-2.284-.704-3.57-1.323-1.286-.62-2.373-1.275-3.26-1.967-.89-.692-1.563-1.434-2.023-2.228a4.973 4.973 0 0 1-.682-2.557c.004-.911.26-1.893.767-2.948.323-.669.677-1.222 1.063-1.657a5.214 5.214 0 0 1 1.248-1.05 5.028 5.028 0 0 1 1.405-.57 8.42 8.42 0 0 1 1.546-.212l-.243-2.032a8.775 8.775 0 0 0-1.94.295c-.621.17-1.211.435-1.771.798-.56.363-1.088.843-1.585 1.44-.496.597-.953 1.329-1.37 2.195-.65 1.348-.998 2.615-1.045 3.796a6.732 6.732 0 0 0 .697 3.316c.512 1.027 1.296 1.982 2.35 2.864 1.056.883 2.36 1.698 3.915 2.446 3.206 1.544 5.925 2.067 8.156 1.568 2.232-.498 3.997-2.096 5.296-4.793.448-.93.743-1.785.89-2.567.145-.783.178-1.513.097-2.19a6.466 6.466 0 0 0-.52-1.901zm-31.5 19.572 14.144 12.332-1.32 1.512-14.143-12.33-4.642 5.324-1.368-1.193 10.603-12.16 1.367 1.191zm-145.938 12.699c-1.5 1.34-2.88 2.299-4.141 2.875-1.26.576-2.449.827-3.565.754-1.115-.073-2.183-.441-3.202-1.105-1.02-.664-2.038-1.565-3.056-2.704l-3.231-3.612 15.339-13.72 3.211 3.592c1.078 1.204 1.882 2.364 2.413 3.478.53 1.114.758 2.23.682 3.35-.077 1.119-.477 2.258-1.202 3.418-.725 1.16-1.807 2.384-3.248 3.674zm-1.425-1.638c1.16-1.038 2.053-2.014 2.68-2.926.626-.913.992-1.812 1.098-2.698.106-.886-.05-1.78-.466-2.685-.417-.904-1.084-1.87-2.003-2.897l-1.744-1.95-12.624 11.29 1.744 1.95c.9 1.006 1.77 1.768 2.616 2.289.845.52 1.713.782 2.605.783.891 0 1.832-.26 2.823-.78.991-.52 2.081-1.313 3.27-2.376zm138.853 21.905 6.18-4.495-1.04-1.43-2.285 1.66-10.03-13.793 2.284-1.661-1.032-1.42-6.18 4.496 1.032 1.419 2.272-1.653 10.031 13.794-2.273 1.653zM227.16 319.82c.064.517.068 1.07.011 1.657l2.033-.01c.05-.649.035-1.288-.047-1.916a6.179 6.179 0 0 0-.54-1.835c-.28-.595-.68-1.174-1.203-1.736-.523-.563-1.194-1.106-2.013-1.628-1.32-.842-2.574-1.347-3.76-1.516-1.186-.168-2.315-.048-3.387.362s-2.093 1.087-3.06 2.033c-.969.947-1.898 2.118-2.788 3.514-.89 1.396-1.561 2.734-2.014 4.015-.452 1.281-.634 2.503-.546 3.664.088 1.161.468 2.253 1.14 3.275.67 1.021 1.691 1.969 3.062 2.843.602.384 1.17.7 1.706.947a11.385 11.385 0 0 0 3.21.954c.553.082 1.152.153 1.797.21l4.7-7.37-6.318-4.03-.983 1.541 4.626 2.95-3.11 4.878c-.46-.07-.895-.15-1.302-.24a11.29 11.29 0 0 1-1.164-.319 8.988 8.988 0 0 1-1.077-.44c-.35-.17-.7-.367-1.051-.591-1.062-.677-1.845-1.417-2.35-2.22a5.144 5.144 0 0 1-.805-2.596c-.032-.925.15-1.914.55-2.964s.972-2.16 1.719-3.33c.794-1.246 1.592-2.272 2.393-3.077.802-.806 1.62-1.384 2.455-1.733a4.849 4.849 0 0 1 2.566-.347c.877.119 1.788.478 2.732 1.081a7.72 7.72 0 0 1 1.468 1.183c.394.415.7.855.922 1.32.221.464.364.954.428 1.471zm96.661 12.42c.416.977.617 1.882.606 2.716a4.753 4.753 0 0 1-.622 2.318c-.405.709-1 1.358-1.79 1.947s-1.75 1.123-2.88 1.604l-5.68 2.415-8.05-18.939 5.404-2.298c1.141-.484 2.136-.803 2.987-.954.852-.153 1.59-.152 2.216.003a3.239 3.239 0 0 1 1.583.894c.43.441.797 1.018 1.1 1.73.259.611.425 1.18.497 1.703a4.133 4.133 0 0 1-.044 1.473 3.841 3.841 0 0 1-.539 1.279c-.257.395-.586.769-.985 1.122a6.823 6.823 0 0 1 1.85-.245 4.455 4.455 0 0 1 1.717.352 4.444 4.444 0 0 1 1.479 1.044c.446.468.83 1.08 1.151 1.836zm-6.876-7.32c-.244-.574-.526-1.022-.846-1.344a2.164 2.164 0 0 0-1.165-.612c-.456-.085-.998-.054-1.625.093-.626.147-1.368.404-2.226.768l-3.133 1.333 2.75 6.473 3.025-1.286c1.615-.687 2.683-1.461 3.205-2.324.522-.862.527-1.897.015-3.1zm-80.412 18.32 5.85-19.729 11.676 3.462-.516 1.74-9.75-2.892-1.975 6.658 8.382 2.485-.52 1.754-8.382-2.486-2.32 7.826 9.75 2.892-.52 1.753zm35.351 6.286.673-18.753 7.058.254.065-1.813-16.122-.579-.065 1.813 7.058.253-.673 18.754zm49.98-16.454c-.333-.784-.726-1.357-1.182-1.718a2.884 2.884 0 0 0-1.557-.623c-.584-.054-1.222.022-1.917.225-.694.204-1.451.48-2.272.83l-3.53 1.5 3.181 7.485 2.997-1.274c.93-.395 1.741-.8 2.434-1.212.691-.413 1.233-.866 1.626-1.362a3.055 3.055 0 0 0 .666-1.68c.053-.627-.095-1.35-.445-2.17z"
            data-paper-data='{"isBaseLogoContainer":true}'
          />
        </g>
      </g>
    </svg>
