<?xml version="1.0" standalone="no"?>
<!DOCTYPE svg PUBLIC "-//W3C//DTD SVG 20010904//EN"
 "http://www.w3.org/TR/2001/REC-SVG-20010904/DTD/svg10.dtd">
<svg version="1.0" xmlns="http://www.w3.org/2000/svg"
 width="1100.000000pt" height="1100.000000pt" viewBox="0 0 1100.000000 1100.000000"
 preserveAspectRatio="xMidYMid meet">
<metadata>
Created by potrace 1.14, written by Peter Selinger 2001-2017
</metadata>
<g transform="translate(0.000000,1100.000000) scale(0.100000,-0.100000)"
fill="#000000" stroke="none">
<path d="M5260 8070 c-30 -4 -80 -10 -111 -14 -31 -4 -67 -9 -80 -12 -54 -10
-95 -17 -111 -18 -10 0 -18 -5 -18 -10 0 -5 -3 -7 -6 -4 -8 9 -230 -53 -324
-89 -8 -4 -17 -7 -20 -8 -3 -1 -18 -7 -33 -13 -16 -7 -30 -12 -32 -12 -2 0
-48 -20 -101 -45 -53 -25 -100 -45 -104 -45 -5 0 -10 -3 -12 -7 -1 -5 -16 -15
-33 -24 -57 -29 -120 -64 -130 -72 -5 -4 -41 -28 -80 -54 -38 -25 -71 -50 -73
-54 -2 -5 -8 -9 -13 -9 -12 0 -113 -79 -117 -91 -2 -5 -8 -9 -13 -9 -10 0 -8
1 -145 -131 -54 -53 -118 -118 -141 -145 -23 -27 -53 -62 -68 -79 -14 -16 -47
-59 -72 -95 -26 -36 -49 -67 -52 -70 -12 -10 -71 -112 -71 -121 0 -5 -4 -9 -8
-9 -5 0 -17 -18 -27 -40 -10 -22 -22 -40 -27 -40 -4 0 -7 -3 -6 -7 1 -5 -11
-33 -27 -63 -16 -30 -29 -57 -30 -60 0 -3 -6 -14 -12 -25 -46 -84 -156 -398
-178 -510 -2 -11 -7 -33 -10 -50 -4 -16 -8 -39 -10 -50 -1 -11 -3 -20 -4 -20
-1 0 -4 -16 -6 -35 -2 -19 -6 -48 -9 -65 -27 -139 -27 -647 -1 -728 2 -6 7
-32 10 -57 10 -65 12 -82 19 -110 3 -14 10 -43 15 -65 29 -125 81 -285 138
-420 39 -92 149 -304 176 -339 4 -6 27 -40 50 -76 22 -36 44 -67 47 -70 3 -3
25 -32 50 -65 24 -33 49 -65 55 -71 5 -6 35 -40 65 -75 65 -75 254 -258 293
-284 11 -8 92 -68 162 -122 16 -13 98 -67 120 -79 143 -82 202 -114 213 -114
6 0 12 -4 12 -10 0 -5 3 -9 8 -8 8 2 94 -35 135 -58 15 -8 27 -12 27 -7 0 4 4
3 8 -2 14 -20 364 -125 467 -140 11 -1 36 -5 55 -9 140 -25 222 -31 430 -31
174 0 272 6 350 19 14 3 45 7 71 10 25 3 52 8 60 11 7 3 28 7 44 9 33 5 70 14
70 16 0 1 13 4 28 6 35 6 238 69 292 90 91 37 124 52 234 107 142 70 184 94
284 163 43 30 82 54 87 54 5 0 10 3 12 8 2 4 37 34 78 67 112 88 245 216 330
315 25 29 50 58 55 64 22 23 104 134 148 201 26 39 50 75 54 80 8 10 44 75 72
130 9 16 20 33 24 36 5 3 10 12 11 20 2 8 19 48 38 89 39 82 108 258 110 280
0 3 6 21 14 40 15 39 44 152 49 190 2 14 5 27 6 30 1 3 3 10 4 15 2 6 4 12 5
15 1 3 4 16 5 30 2 14 7 41 10 60 3 19 8 46 11 60 20 117 26 478 10 630 -5 47
-10 95 -10 108 -1 12 -3 22 -6 22 -3 0 -6 8 -6 18 -1 20 -13 90 -19 112 -2 8
-6 26 -9 40 -3 14 -8 36 -11 50 -3 14 -8 34 -10 45 -5 22 -65 206 -90 275 -9
25 -34 82 -56 127 -21 44 -39 84 -39 88 0 4 -9 20 -21 36 -11 16 -17 29 -13
29 4 0 0 8 -8 18 -8 9 -26 37 -39 62 -13 25 -32 54 -41 64 -10 11 -18 24 -18
29 0 8 -40 68 -77 117 -148 194 -261 317 -408 443 -85 74 -250 197 -264 197
-5 0 -11 4 -13 8 -3 8 -196 126 -208 127 -3 0 -16 7 -30 15 -14 8 -27 15 -30
15 -3 1 -41 18 -85 39 -44 21 -84 39 -90 40 -10 3 -54 20 -85 33 -8 3 -17 7
-20 8 -3 0 -45 14 -95 29 -49 15 -96 30 -105 32 -30 7 -151 34 -178 39 -15 3
-38 7 -51 10 -13 2 -49 7 -80 11 -31 3 -65 8 -76 11 -33 8 -455 10 -515 3z
m320 -302 c0 -15 -10 -18 -60 -19 -33 -1 -64 -3 -70 -4 -5 -1 -13 -3 -16 -4
-3 0 -2 -6 2 -13 11 -18 11 -57 0 -51 -5 4 -6 1 -1 -8 5 -7 10 -72 12 -144 2
-71 5 -136 8 -142 3 -8 -5 -13 -20 -13 -25 0 -25 1 -26 88 -2 159 -7 274 -14
280 -3 3 -37 5 -74 4 -62 -2 -69 0 -64 16 4 15 14 18 64 17 32 0 59 2 59 5 0
3 45 5 100 5 89 1 100 -1 100 -17z m-605 -58 c7 -11 -35 -31 -115 -55 -30 -9
-60 -18 -67 -20 -9 -3 -9 -13 -2 -37 6 -18 12 -40 14 -48 2 -8 4 -16 4 -17 1
-2 1 -6 2 -10 2 -20 30 -19 98 3 57 18 76 21 82 12 11 -18 2 -26 -44 -39 -23
-7 -46 -14 -52 -15 -5 -2 -18 -5 -28 -7 -34 -7 -37 -21 -17 -75 11 -29 20 -61
20 -72 0 -11 3 -20 8 -20 13 0 139 38 158 48 22 11 44 5 44 -12 0 -11 -42 -31
-87 -41 -10 -2 -46 -13 -80 -24 -68 -21 -64 -23 -78 36 -3 10 -16 54 -29 98
-51 165 -74 246 -68 241 3 -3 10 -1 17 4 6 5 22 12 36 14 13 3 25 5 27 5 1 1
5 2 10 3 4 1 30 10 57 20 59 20 82 22 90 8z m1333 -69 c9 -6 40 -20 67 -33 69
-32 94 -62 89 -106 -5 -39 -52 -92 -81 -92 -15 0 -15 -3 5 -18 30 -24 35 -71
11 -120 -23 -46 -60 -66 -110 -59 -32 4 -48 8 -94 27 -11 5 -35 14 -52 22 -31
12 -47 48 -23 48 6 0 9 3 8 8 -2 4 5 25 14 47 9 22 17 45 18 50 1 6 9 18 17
28 9 9 13 17 9 17 -3 0 1 15 11 33 9 17 18 37 19 42 1 6 12 34 24 63 22 52 35
60 68 43z m-1878 -186 c19 -23 4 -32 -47 -28 -60 5 -108 -22 -129 -74 -15 -34
-14 -56 5 -105 5 -13 8 -25 8 -28 -1 -7 32 -47 77 -93 37 -37 42 -39 87 -35
33 4 58 14 81 33 58 49 59 55 23 107 l-32 48 -46 -30 c-42 -26 -47 -28 -56
-12 -7 13 -2 21 27 39 21 13 45 26 55 29 9 4 17 10 17 15 0 24 24 2 65 -61 44
-69 45 -71 30 -101 -20 -37 -100 -97 -143 -105 -59 -12 -100 4 -153 58 -27 27
-49 56 -49 63 0 7 -7 18 -15 25 -9 7 -13 15 -10 18 3 3 0 11 -7 19 -14 18 -19
104 -6 121 6 6 7 12 2 12 -18 0 54 64 91 81 48 22 108 24 125 4z m2399 -92
c20 -15 42 -33 49 -40 7 -7 19 -13 25 -13 6 0 4 -7 -6 -17 -15 -16 -18 -16
-35 0 -18 17 -20 16 -45 -15 -66 -85 -97 -129 -97 -138 0 -6 -4 -10 -8 -10 -4
0 -16 -13 -25 -30 -10 -16 -24 -36 -32 -44 -12 -12 -12 -17 5 -36 11 -13 20
-27 20 -32 0 -14 -28 -9 -44 8 -9 8 -16 13 -16 9 0 -4 -7 1 -16 10 -9 9 -28
23 -41 32 -18 12 -21 19 -12 29 9 11 15 11 34 -2 22 -14 24 -13 46 18 13 18
27 38 32 43 4 6 32 44 62 85 30 41 61 84 70 94 13 18 13 21 -5 33 -22 15 -27
43 -8 43 6 0 27 -12 47 -27z m321 -280 c56 -68 110 -131 142 -167 32 -35 35
-42 21 -50 -12 -7 -26 3 -62 43 l-47 52 -30 -28 c-17 -15 -56 -50 -88 -78 -32
-27 -71 -61 -86 -75 -57 -51 -70 -59 -85 -54 -23 9 -19 17 26 55 22 19 55 47
72 62 18 16 54 48 81 70 90 77 90 77 63 106 -58 63 -65 74 -60 87 6 16 29 6
53 -23z m-1485 3 c22 -3 60 -8 85 -12 25 -3 81 -15 125 -26 98 -24 97 -24 115
-31 8 -3 42 -15 75 -27 78 -28 265 -121 265 -132 0 -4 5 -8 11 -8 37 0 322
-246 389 -335 8 -11 29 -38 47 -60 45 -58 124 -190 162 -269 27 -57 85 -201
81 -201 -1 0 3 -16 18 -65 8 -29 16 -59 27 -110 1 -3 5 -30 9 -60 4 -30 10
-64 12 -75 6 -28 6 -293 0 -335 -2 -19 -7 -56 -11 -81 -9 -70 -34 -181 -54
-239 -13 -36 -20 -59 -21 -65 -1 -7 -32 -79 -61 -140 -23 -51 -117 -212 -137
-236 -6 -8 -32 -41 -58 -74 -44 -57 -163 -179 -230 -236 -62 -53 -212 -148
-309 -197 -169 -84 -330 -132 -530 -158 -54 -7 -324 -6 -355 1 -14 3 -45 8
-70 11 -25 3 -81 14 -125 26 -44 11 -84 21 -90 22 -5 1 -14 4 -20 7 -5 4 -35
14 -65 24 -30 10 -66 23 -80 30 -14 7 -52 26 -85 43 -89 43 -217 120 -235 142
-3 3 -25 21 -50 40 -67 50 -269 258 -270 278 -1 4 -14 23 -30 42 -17 19 -30
40 -30 47 0 7 -4 13 -9 13 -5 0 -14 14 -21 30 -7 17 -16 30 -21 30 -5 0 -9 9
-9 19 0 11 -3 21 -8 23 -22 9 -140 305 -145 361 -1 9 -5 17 -10 17 -4 0 -6 4
-3 8 2 4 -2 37 -10 72 -32 148 -36 384 -10 540 3 14 7 39 9 55 19 125 112 381
172 475 5 8 10 17 10 20 1 7 96 152 109 167 6 6 22 26 36 45 35 47 197 208
245 243 22 17 49 38 59 48 11 9 23 17 27 17 4 0 14 6 21 13 49 47 359 195 415
199 5 0 18 4 31 9 12 5 33 11 45 13 12 2 40 9 62 15 43 11 103 20 200 28 33 3
61 6 62 7 4 4 199 -3 238 -8z m-1652 -69 c112 -86 145 -165 102 -247 -8 -14
-34 -49 -60 -77 l-46 -52 -36 32 c-20 17 -48 43 -62 55 -14 13 -55 49 -90 80
-100 89 -111 100 -111 110 0 20 123 132 153 140 40 11 106 -7 150 -41z m-478
-417 c3 -5 15 -10 25 -10 10 0 20 -3 22 -7 2 -5 37 -24 78 -43 87 -40 156 -85
166 -109 25 -61 -6 -158 -63 -199 -32 -22 -96 -22 -142 2 -14 7 -66 32 -116
55 -118 55 -119 55 -123 75 -5 23 11 20 86 -16 37 -17 69 -32 72 -32 3 -1 25
-11 50 -22 63 -30 81 -37 110 -40 44 -6 100 62 100 121 0 23 -48 91 -58 81 -2
-3 -17 2 -31 12 -14 10 -69 37 -121 62 -52 25 -97 46 -99 47 -2 1 -1 9 2 18 7
17 33 20 42 5z m4003 -71 c17 -18 32 -41 32 -50 0 -10 5 -21 11 -24 14 -10 8
-85 -9 -113 -14 -21 -17 -22 -31 -8 -12 12 -12 19 -3 28 34 34 -3 137 -58 165
-52 26 -165 -8 -235 -70 -29 -26 -37 -41 -40 -75 -2 -23 1 -45 6 -48 5 -3 7
-9 4 -14 -6 -9 60 -81 73 -79 25 4 40 -3 38 -18 -4 -23 -51 -20 -86 5 -34 25
-71 95 -75 140 -9 94 98 187 239 207 16 2 31 6 33 9 10 9 69 -24 101 -55z
m190 -522 c-2 -14 -10 -22 -23 -23 -11 0 -36 -4 -55 -7 -38 -8 -80 -15 -93
-16 -5 -1 -5 -6 -1 -12 3 -6 9 -28 11 -48 5 -41 11 -74 13 -81 4 -9 7 -25 8
-42 1 -11 9 -16 21 -13 10 2 36 6 57 9 22 4 54 9 72 12 27 5 32 3 32 -14 0
-20 -7 -23 -104 -38 -21 -3 -48 -8 -60 -10 -35 -8 -100 -17 -123 -18 -13 -1
-23 -3 -23 -6 0 -3 -14 -7 -31 -8 -16 -1 -33 -3 -37 -3 -35 -5 -40 29 -5 36
13 3 35 7 49 10 14 3 45 8 67 12 23 3 44 7 46 9 4 4 -16 145 -26 177 -5 19
-32 19 -113 2 -72 -16 -86 -15 -86 5 0 13 9 21 26 24 39 8 148 27 178 31 15 2
43 6 62 10 19 3 48 8 65 11 16 3 30 6 32 7 1 2 12 3 23 4 16 1 21 -3 18 -20z
m-4335 -35 c15 -6 27 -15 27 -19 0 -5 5 -15 10 -23 8 -13 14 -10 34 15 20 25
31 30 69 30 107 0 135 -53 112 -215 -4 -25 -7 -51 -7 -57 -2 -17 -12 -18 -64
-8 -16 3 -51 8 -79 11 -27 4 -53 8 -57 11 -4 2 -27 6 -51 9 -94 12 -162 30
-159 42 1 7 5 29 8 50 10 70 25 111 49 140 26 31 56 35 108 14z m4042 -666
c22 -3 53 -9 68 -12 16 -3 38 -7 50 -9 12 -2 31 -6 42 -8 11 -3 45 -8 75 -13
30 -4 58 -9 63 -10 4 -1 16 -2 27 -3 13 -1 20 -8 20 -22 0 -18 -5 -19 -42 -15
-24 2 -43 5 -43 6 0 3 -39 9 -74 12 l-35 3 -12 -60 c-6 -33 -15 -76 -18 -96
l-6 -37 62 -12 c64 -12 93 -16 116 -19 6 0 12 -11 12 -22 0 -19 -4 -21 -32
-15 -18 4 -50 9 -71 12 -48 7 -72 12 -72 14 0 1 -11 3 -25 4 -36 4 -172 27
-192 32 -19 6 -22 13 -10 30 5 9 26 8 82 -2 41 -8 80 -12 86 -10 9 4 36 126
38 176 1 15 -33 25 -119 36 -27 3 -51 7 -52 8 -5 5 10 45 16 42 3 -2 24 -7 46
-10z m-3804 -23 c1 -15 4 -39 6 -53 12 -69 7 -130 -12 -150 -31 -30 -92 -36
-125 -11 l-28 20 -7 -26 c-23 -92 -171 -94 -207 -3 -24 61 -42 176 -30 184 7
4 103 22 162 31 8 1 34 5 58 9 23 4 53 9 67 11 14 1 28 4 30 7 2 2 23 5 45 6
37 3 40 1 41 -25z m119 -481 c0 -12 -37 -35 -132 -81 -156 -75 -182 -98 -173
-155 7 -45 37 -92 65 -101 11 -4 35 -3 53 1 27 6 151 59 197 85 67 38 100 43
100 16 0 -11 -154 -90 -164 -84 -2 1 -13 -6 -23 -16 -11 -9 -23 -14 -26 -10
-4 3 -7 0 -7 -7 0 -7 -3 -10 -7 -7 -3 4 -12 2 -19 -4 -7 -6 -35 -12 -63 -14
-45 -4 -54 -1 -84 25 -23 19 -40 48 -51 85 -32 101 -6 132 194 227 138 66 140
66 140 40z m3578 -29 c-2 -9 -12 -20 -23 -23 -81 -21 -119 -118 -73 -186 22
-33 112 -91 151 -98 12 -2 27 -5 32 -6 35 -8 69 4 102 33 31 29 36 39 37 83 0
27 -3 56 -7 64 -4 8 -2 22 3 30 16 26 42 -11 45 -66 6 -99 -63 -181 -159 -188
-36 -3 -176 50 -176 67 0 4 -5 7 -11 7 -23 0 -78 83 -79 119 -1 79 73 181 132
181 22 0 29 -4 26 -17z m-284 -401 c3 -5 -15 -33 -40 -62 l-45 -53 29 -26 c16
-14 55 -48 86 -76 148 -128 169 -150 154 -163 -12 -9 -21 -6 -49 19 -19 17
-56 49 -83 72 -27 23 -61 53 -76 67 -15 14 -41 37 -58 52 l-30 26 -47 -54
c-37 -44 -50 -53 -61 -43 -11 9 -11 14 -1 24 7 7 24 27 39 46 14 19 45 54 68
79 23 25 51 57 63 72 22 28 41 35 51 20z m-2962 -110 c68 -83 57 -162 -35
-248 -80 -75 -141 -97 -202 -74 -23 9 -145 122 -145 134 0 7 32 37 120 116 40
36 79 71 87 79 8 7 33 29 55 48 l42 34 30 -34 c17 -19 39 -44 48 -55z m2588
-284 c-12 -11 -20 -23 -18 -27 2 -4 44 -64 93 -134 83 -117 117 -147 127 -115
2 6 12 9 21 5 25 -9 12 -28 -47 -69 -37 -26 -57 -34 -67 -27 -11 8 -10 13 10
29 l23 20 -37 52 c-21 28 -41 56 -46 62 -28 35 -79 107 -79 112 0 2 -9 14 -19
25 -16 17 -23 19 -41 9 -17 -9 -25 -9 -33 -1 -9 9 -9 14 -1 19 14 9 59 42 88
64 15 12 25 13 34 6 10 -9 8 -15 -8 -30z m-2184 -55 c28 -12 103 -83 89 -83
-2 0 -1 -11 4 -23 5 -13 6 -30 1 -37 -10 -16 -42 -6 -39 12 3 27 -2 39 -28 66
-33 34 -80 52 -116 45 -34 -7 -86 -56 -120 -113 -28 -49 -51 -130 -36 -130 5
0 8 -3 7 -7 -5 -23 29 -63 72 -83 58 -27 78 -22 108 29 24 44 28 61 11 61 -5
0 -26 11 -45 24 -29 19 -32 25 -20 35 11 9 26 4 75 -27 l60 -38 -34 -52 c-19
-28 -35 -54 -35 -57 0 -4 -7 -13 -15 -22 -29 -28 -131 6 -187 62 -30 30 -52
96 -39 120 3 6 6 17 6 25 0 26 65 132 103 167 19 18 47 36 61 39 14 3 31 7 36
9 13 4 42 -4 81 -22z m1858 -156 c10 -8 24 -31 32 -52 11 -32 11 -43 -1 -64
-13 -25 -12 -26 28 -36 33 -8 46 -18 64 -50 12 -22 22 -51 21 -65 -3 -43 -45
-88 -114 -120 -108 -50 -105 -51 -137 27 -15 37 -27 74 -27 81 0 6 -4 12 -9
12 -5 0 -12 12 -16 27 -3 15 -17 52 -31 81 -13 29 -24 59 -24 67 0 8 -4 15
-10 15 -5 0 -10 6 -10 13 0 17 134 73 181 75 19 1 44 -4 53 -11z m-1416 -61
c40 -14 72 -23 72 -22 0 7 66 -19 68 -26 8 -29 -22 -40 -46 -16 -7 7 -12 9
-12 5 0 -4 -30 4 -66 17 -45 17 -66 20 -69 13 -2 -7 -12 -37 -23 -69 l-19 -56
21 -7 c11 -4 24 -8 29 -10 14 -5 22 -7 32 -9 57 -13 78 -21 82 -33 10 -24 -3
-25 -79 -4 -41 12 -79 21 -84 21 -14 0 -56 -142 -45 -153 5 -5 15 -10 22 -11
38 -7 85 -19 94 -25 12 -7 18 -8 45 -10 13 -1 20 -8 20 -21 0 -25 1 -25 -85 1
-39 11 -77 22 -85 24 -8 2 -27 8 -42 14 -27 10 -27 11 -13 51 8 22 14 41 13
43 -1 2 73 252 87 295 5 15 -1 16 83 -12z m615 -88 c39 0 47 -3 47 -18 0 -15
-8 -18 -47 -18 -27 0 -59 -1 -73 -1 l-25 -1 0 -123 c1 -67 -3 -130 -7 -139 -5
-10 -5 -18 0 -18 5 0 6 -17 2 -40 -5 -26 -3 -41 4 -44 6 -2 -1 -5 -17 -5 l-27
-1 5 191 c5 152 3 190 -7 188 -7 -1 -39 -1 -70 0 -50 1 -58 4 -58 20 0 18 7
19 113 14 61 -2 133 -5 160 -5z"/>
<path d="M6274 7574 c-9 -21 -20 -47 -25 -56 -16 -32 -9 -45 34 -58 23 -7 46
-17 51 -21 5 -4 19 -4 31 1 13 5 25 7 28 4 4 -5 26 45 33 74 3 15 -72 72 -96
72 -9 0 -21 5 -27 11 -9 9 -16 2 -29 -27z"/>
<path d="M6190 7374 c-17 -36 -30 -69 -30 -73 0 -9 96 -49 125 -52 32 -4 61 9
72 34 22 44 23 60 9 82 -13 20 -113 75 -137 75 -5 0 -23 -30 -39 -66z"/>
<path d="M5427 7014 c-1 -1 -33 -5 -72 -8 -73 -6 -95 -9 -185 -28 -61 -13 -69
-15 -72 -17 -4 -2 -170 -60 -182 -63 -18 -6 -221 -111 -226 -117 -3 -4 -22
-17 -43 -30 -21 -13 -43 -28 -50 -35 -6 -6 -32 -27 -57 -46 -42 -33 -144 -132
-200 -196 -160 -181 -299 -485 -335 -730 -3 -22 -8 -55 -11 -74 -10 -67 -4
-390 7 -390 3 0 5 -10 6 -22 2 -50 40 -202 70 -278 3 -8 7 -19 8 -25 14 -60
195 -375 216 -375 5 0 9 -5 9 -10 0 -25 169 -195 275 -276 103 -78 211 -140
345 -197 46 -19 188 -65 220 -71 14 -2 32 -7 40 -10 8 -2 35 -8 60 -11 195
-27 375 -24 540 9 103 21 111 23 143 35 16 6 33 9 38 5 5 -3 9 -1 9 4 0 7 44
25 90 37 8 2 84 37 100 46 8 5 41 22 73 39 32 17 64 35 70 40 7 5 48 36 92 68
93 68 295 265 295 289 0 3 15 24 33 47 76 95 167 277 214 431 14 44 26 87 27
95 1 8 5 26 9 40 8 31 16 79 23 145 7 57 7 310 0 340 -2 11 -7 46 -11 78 -4
31 -11 57 -15 57 -3 0 -6 10 -5 23 1 12 -4 38 -11 57 -7 19 -15 49 -19 65 -4
17 -12 44 -20 60 -13 31 -22 56 -23 65 0 11 -105 206 -118 221 -8 8 -14 20
-14 25 0 6 -8 19 -17 30 -10 10 -38 46 -62 78 -81 109 -291 300 -381 346 -14
7 -27 16 -30 19 -21 27 -304 146 -394 166 -12 2 -39 9 -62 14 -79 20 -193 32
-307 35 -49 1 -89 1 -90 0z m253 -128 c63 -8 157 -27 219 -46 221 -68 410
-181 582 -348 60 -58 109 -112 109 -118 0 -7 6 -17 13 -21 30 -19 142 -209
190 -323 22 -53 59 -160 63 -184 2 -11 8 -43 14 -71 23 -106 32 -349 18 -450
-29 -196 -97 -393 -185 -533 -18 -29 -33 -55 -33 -58 0 -17 -113 -149 -195
-230 -104 -102 -211 -181 -328 -242 -42 -23 -78 -41 -80 -41 -1 0 -20 -7 -41
-16 -22 -9 -48 -18 -57 -20 -10 -2 -26 -8 -36 -13 -29 -15 -200 -53 -272 -60
-154 -15 -357 -4 -476 26 -200 51 -363 127 -521 242 -86 63 -241 223 -305 315
-53 76 -154 255 -143 255 3 0 -1 10 -8 23 -7 12 -13 24 -14 27 0 3 -3 12 -7
20 -21 54 -50 157 -54 192 -2 23 -7 46 -10 51 -22 35 -22 375 0 472 2 11 8 38
11 60 8 44 29 115 54 185 9 25 17 47 17 50 1 14 85 173 119 225 64 97 104 144
206 245 156 155 319 254 535 327 55 18 101 33 103 33 1 0 12 2 25 5 31 6 84
15 137 21 25 3 46 7 47 8 5 4 258 -3 303 -8z"/>
<path d="M5022 6656 c-6 -8 -9 -2256 -3 -2312 1 -8 98 -10 339 -9 312 2 343 4
411 24 142 42 227 100 315 215 22 29 33 52 27 55 -6 4 -58 6 -115 6 -102 -2
-106 -3 -133 -30 -33 -33 -129 -80 -193 -94 -24 -5 -137 -9 -250 -8 l-205 2 0
490 0 489 200 1 c277 0 364 -24 470 -130 51 -50 91 -129 112 -220 9 -39 10
-235 2 -265 -3 -12 7 -15 56 -13 70 2 135 9 143 17 8 9 7 215 -1 271 -21 135
-77 239 -182 338 -45 42 -74 60 -154 93 -23 10 -22 11 30 38 30 15 68 40 85
55 39 36 92 112 106 154 6 17 15 37 20 44 5 7 7 17 4 22 -4 5 -2 12 3 16 11 6
10 0 15 157 5 135 15 123 -121 127 l-78 2 2 -113 c4 -223 -66 -341 -242 -403
-42 -15 -76 -18 -271 -22 l-201 -4 0 426 1 427 230 -4 c222 -4 233 -5 286 -29
31 -14 63 -33 71 -42 16 -16 64 -21 181 -18 51 1 56 3 51 21 -3 11 -9 20 -14
20 -5 0 -9 5 -9 11 0 6 -21 33 -47 60 -65 69 -145 112 -248 135 -54 12 -685
12 -693 0z"/>
<path d="M4610 5524 c0 -681 3 -863 13 -866 6 -2 93 -4 192 -4 l180 1 0 85 0
85 -95 5 -94 5 -1 310 c0 171 3 317 7 326 6 13 23 16 93 14 47 -1 85 1 86 4 1
3 2 41 3 84 l2 77 -96 0 -95 0 1 272 c1 150 2 278 3 283 1 6 39 10 93 10 l93
0 0 85 0 85 -193 1 -192 0 0 -862z"/>
<path d="M5236 6381 c-1 -3 -2 -42 -2 -86 l1 -80 375 -2 c484 -2 538 -6 609
-43 33 -17 85 -69 87 -88 0 -4 5 -16 10 -27 5 -11 9 -74 9 -140 -1 -92 -5
-127 -17 -150 -45 -81 -109 -112 -245 -118 -71 -4 -89 -8 -123 -32 -22 -15
-40 -29 -40 -31 0 -2 16 -10 35 -18 37 -16 50 -25 95 -68 21 -20 41 -28 81
-31 74 -7 119 -18 119 -29 0 -5 4 -7 9 -4 13 9 89 -51 111 -87 30 -49 43 -104
43 -192 0 -236 -65 -303 -313 -320 -19 -1 -218 -3 -441 -4 l-407 -1 0 -84 c1
-53 5 -86 12 -89 16 -5 925 1 966 7 55 8 83 13 115 24 46 15 125 55 125 64 0
4 6 8 13 8 6 1 26 19 42 41 17 22 35 45 41 52 11 13 39 91 50 142 11 51 14
294 4 300 -6 4 -10 15 -10 26 0 34 -41 109 -83 151 -37 38 -134 91 -164 91
-23 0 -14 13 22 30 117 56 185 186 180 343 -4 103 -10 127 -46 202 -54 110
-154 189 -294 228 -52 15 -120 18 -513 19 -249 1 -454 -1 -456 -4z"/>
<path d="M3841 7004 c-26 -19 -47 -39 -69 -66 -11 -14 -8 -21 20 -50 19 -18
49 -46 68 -62 19 -16 59 -50 88 -77 29 -27 57 -49 61 -49 13 0 65 71 77 104
19 52 -7 104 -82 165 -64 51 -123 64 -163 35z"/>
<path d="M3313 5932 c-17 -11 -35 -61 -38 -109 -4 -42 -3 -43 26 -43 36 0 32
1 69 -10 34 -10 40 -4 44 47 1 15 5 33 8 39 4 6 -1 26 -10 45 -14 27 -24 34
-52 36 -19 2 -40 0 -47 -5z"/>
<path d="M3512 5933 c-18 -4 -53 -48 -52 -68 0 -3 0 -6 -1 -7 -8 -28 -19 -112
-14 -106 3 3 36 -1 73 -8 84 -17 89 -17 89 -1 1 6 4 36 7 65 8 76 0 102 -40
118 -18 8 -35 13 -36 13 -2 -1 -13 -4 -26 -6z"/>
<path d="M3516 5257 l-58 -10 6 -45 c9 -69 35 -107 74 -108 17 -1 41 6 53 14
19 13 21 21 16 78 -6 64 -12 85 -25 83 -4 -1 -33 -6 -66 -12z"/>
<path d="M3389 5236 c-2 -2 -22 -7 -44 -10 -77 -11 -80 -13 -78 -32 3 -26 11
-74 17 -102 8 -35 46 -62 81 -57 57 7 72 20 66 58 0 4 4 7 10 7 5 0 7 4 4 10
-7 12 -12 35 -16 80 -4 38 -24 61 -40 46z"/>
<path d="M3974 4277 c-15 -17 -173 -160 -203 -184 l-24 -20 42 -42 c67 -67
107 -73 179 -27 39 24 111 101 113 120 5 49 -6 106 -22 106 -5 0 -9 5 -9 10 0
14 -38 50 -52 50 -7 -1 -18 -6 -24 -13z"/>
<path d="M6210 3719 c-24 -11 -46 -21 -47 -23 -2 -1 9 -30 24 -64 28 -66 38
-71 86 -39 15 9 29 17 32 17 27 0 49 63 32 94 -24 43 -57 47 -127 15z"/>
<path d="M6355 3583 c-16 -3 -107 -40 -123 -49 -2 -1 11 -36 29 -77 l31 -76
57 27 c91 44 110 71 87 127 -12 27 -45 59 -58 54 -2 -1 -12 -3 -23 -6z"/>
</g>
</svg>
